<svg xmlns="http://www.w3.org/2000/svg" viewBox="0 0 226.61 172.63"><defs><style>.cls-1{fill:#fff;}.cls-2{fill:#2681c4;}.cls-3{fill:#fff200;}</style></defs><title>Asset 1</title><g id="Layer_2" data-name="Layer 2"><g id="Layer_1-2" data-name="Layer 1"><path class="cls-1" d="M10.77,157.07h5.72v1.84H13.11v4.61h2.61v1.85H13.11v5.28h3.47v1.84H10.77Z"/><path class="cls-1" d="M18.27,157.07H20.6v13.58h3.19v1.84H18.27Z"/><path class="cls-1" d="M28.08,157.07h2.39l1.7,12.21h.1L34,157.07h2.39l-2.81,15.42H30.88Z"/><path class="cls-1" d="M37.85,157.07h5.71v1.84H40.19v4.61h2.6v1.85h-2.6v5.28h3.46v1.84h-5.8Z"/><path class="cls-1" d="M45.34,157.07h2.54c.29,0,.6,0,.95,0a5.37,5.37,0,0,1,1,.17,4.34,4.34,0,0,1,1,.42,3,3,0,0,1,.86.77,3.76,3.76,0,0,1,.6,1.22,6.18,6.18,0,0,1,.22,1.78v.39a6.91,6.91,0,0,1-.5,2.87,3.18,3.18,0,0,1-1.49,1.59L53,172.49H50.56l-2.05-5.77h-.88v5.77H45.34ZM48,165a3.44,3.44,0,0,0,1-.13,1.41,1.41,0,0,0,.69-.46,2.09,2.09,0,0,0,.38-.85,5.93,5.93,0,0,0,.12-1.3v-1.22a4.39,4.39,0,0,0-.11-1,1.55,1.55,0,0,0-.37-.71,1.51,1.51,0,0,0-.68-.42,3.57,3.57,0,0,0-1.06-.13h-.36V165Z"/><path class="cls-1" d="M54.8,157.07h2.43l1.14,0a5.62,5.62,0,0,1,1.16.19,3.7,3.7,0,0,1,1.06.51,3,3,0,0,1,.88.94,4.85,4.85,0,0,1,.6,1.54,9.76,9.76,0,0,1,.22,2.26V167a9.76,9.76,0,0,1-.22,2.26,4.85,4.85,0,0,1-.6,1.54,3,3,0,0,1-.88.94,3.67,3.67,0,0,1-1.06.5,5,5,0,0,1-1.16.2l-1.14,0H54.8Zm2.94,13.78a2.84,2.84,0,0,0,1-.16,1.33,1.33,0,0,0,.65-.57,3,3,0,0,0,.33-1.12,14.63,14.63,0,0,0,.09-1.79v-4.79a14.63,14.63,0,0,0-.09-1.79,3,3,0,0,0-.33-1.12,1.33,1.33,0,0,0-.65-.57,2.84,2.84,0,0,0-1-.16h-.6v12.07Z"/><path class="cls-1" d="M66.08,157.07h2.69l2.85,15.42H69.26l-.43-2.76H66l-.4,2.76H63.23ZM68.56,168l-1.08-7.69h-.1L66.28,168Z"/><path class="cls-1" d="M73.11,157.07h2.43l1.14,0a5.73,5.73,0,0,1,1.16.19,3.7,3.7,0,0,1,1.06.51,3.07,3.07,0,0,1,.88.94,5.38,5.38,0,0,1,.6,1.54,9.76,9.76,0,0,1,.22,2.26V167a9.76,9.76,0,0,1-.22,2.26,5.38,5.38,0,0,1-.6,1.54,3.07,3.07,0,0,1-.88.94,3.67,3.67,0,0,1-1.06.5,5.13,5.13,0,0,1-1.16.2l-1.14,0H73.11ZM76,170.85a2.9,2.9,0,0,0,1-.16,1.33,1.33,0,0,0,.65-.57,3,3,0,0,0,.33-1.12,14.63,14.63,0,0,0,.09-1.79v-4.79a14.63,14.63,0,0,0-.09-1.79,3,3,0,0,0-.33-1.12,1.33,1.33,0,0,0-.65-.57,2.9,2.9,0,0,0-1-.16h-.59v12.07Z"/><path class="cls-1" d="M82.69,157.07H88.4v1.84H85v4.61h2.61v1.85H85v5.28h3.46v1.84h-5.8Z"/><path class="cls-1" d="M90.18,157.07h2.54c.29,0,.6,0,1,0a5.37,5.37,0,0,1,1,.17,4.34,4.34,0,0,1,1,.42,3,3,0,0,1,.86.77,3.76,3.76,0,0,1,.6,1.22,6.18,6.18,0,0,1,.22,1.78v.39a6.91,6.91,0,0,1-.5,2.87,3.18,3.18,0,0,1-1.49,1.59l2.47,6.17H95.4l-2.05-5.77h-.88v5.77H90.18Zm2.65,8a3.4,3.4,0,0,0,1-.13,1.41,1.41,0,0,0,.69-.46,2.09,2.09,0,0,0,.38-.85,5.93,5.93,0,0,0,.12-1.3v-1.22a4.39,4.39,0,0,0-.11-1,1.55,1.55,0,0,0-.37-.71,1.51,1.51,0,0,0-.68-.42,3.57,3.57,0,0,0-1.06-.13h-.36V165Z"/><path class="cls-1" d="M103.05,172.62a8,8,0,0,1-.8-.05,3.49,3.49,0,0,1-.86-.25,3.36,3.36,0,0,1-.81-.54,3.23,3.23,0,0,1-.7-.92,5.44,5.44,0,0,1-.48-1.4,9.59,9.59,0,0,1-.18-2V162a9.45,9.45,0,0,1,.18-2,5.74,5.74,0,0,1,.49-1.39,3.16,3.16,0,0,1,.7-.9,3.32,3.32,0,0,1,.83-.51,3,3,0,0,1,.85-.23,5.54,5.54,0,0,1,.78-.06,7.42,7.42,0,0,1,.77,0,3.72,3.72,0,0,1,.84.22,2.92,2.92,0,0,1,.81.5,3,3,0,0,1,.71.89,5.43,5.43,0,0,1,.49,1.4,9.69,9.69,0,0,1,.19,2v5.46a9.33,9.33,0,0,1-.19,2,6,6,0,0,1-.5,1.4,3.25,3.25,0,0,1-.71.92,3.62,3.62,0,0,1-.82.54,3,3,0,0,1-.84.26A5.14,5.14,0,0,1,103.05,172.62Zm0-1.76a1.66,1.66,0,0,0,.61-.11,1,1,0,0,0,.42-.41,2.51,2.51,0,0,0,.25-.76,6.67,6.67,0,0,0,.09-1.2v-7a7.08,7.08,0,0,0-.09-1.24,2.7,2.7,0,0,0-.25-.8,1,1,0,0,0-.42-.43,1.61,1.61,0,0,0-1.22,0,1,1,0,0,0-.43.43,2.42,2.42,0,0,0-.26.8,7.08,7.08,0,0,0-.09,1.24v7a6.67,6.67,0,0,0,.09,1.2,2.25,2.25,0,0,0,.26.76,1,1,0,0,0,.43.41A1.66,1.66,0,0,0,103.05,170.86Z"/><path class="cls-1" d="M112.42,169.37a6.46,6.46,0,0,1,.06-.92c0-.28.1-.58.18-.91h1.81v.75a7.08,7.08,0,0,0,.08,1.1,2.76,2.76,0,0,0,.25.81,1.26,1.26,0,0,0,.47.5,1.47,1.47,0,0,0,.72.16,1.35,1.35,0,0,0,1-.36,1.47,1.47,0,0,0,.35-1.07,3.58,3.58,0,0,0,0-.67,2.7,2.7,0,0,0-.17-.6,4.22,4.22,0,0,0-.33-.62,7.65,7.65,0,0,0-.53-.74l-2.44-2.9a7.53,7.53,0,0,1-1-1.67,4.69,4.69,0,0,1-.35-1.8,4,4,0,0,1,.24-1.41,3.16,3.16,0,0,1,.69-1.11,3,3,0,0,1,1.11-.72,4.23,4.23,0,0,1,1.51-.26,4.43,4.43,0,0,1,1.7.29,3.17,3.17,0,0,1,1.09.76,2.69,2.69,0,0,1,.57,1.05,4.3,4.3,0,0,1,.17,1.17,5.25,5.25,0,0,1-.08.92c0,.28-.11.59-.18.92h-1.8v-.73a4.11,4.11,0,0,0-.35-1.88,1.2,1.2,0,0,0-1.15-.65,1.24,1.24,0,0,0-1,.36,1.4,1.4,0,0,0-.33,1,3.51,3.51,0,0,0,0,.59,2.43,2.43,0,0,0,.14.48,3.55,3.55,0,0,0,.23.43c.09.14.2.28.31.43l2.72,3.29a9.77,9.77,0,0,1,1.14,1.85,4.67,4.67,0,0,1,.39,1.89,4.1,4.1,0,0,1-.25,1.48,3.06,3.06,0,0,1-1.9,1.82,4.25,4.25,0,0,1-1.52.25,4.59,4.59,0,0,1-1.74-.28,2.77,2.77,0,0,1-1.1-.74,2.61,2.61,0,0,1-.58-1A4.52,4.52,0,0,1,112.42,169.37Z"/><path class="cls-1" d="M123.35,157.07H126l2.85,15.42h-2.36l-.43-2.76h-2.81l-.41,2.76H120.5Zm2.48,10.9-1.08-7.69h-.1L123.56,168Z"/><path class="cls-1" d="M130.38,157.07h2.37c.35,0,.71,0,1.08,0a6.5,6.5,0,0,1,1.09.15,4.31,4.31,0,0,1,1,.35,2.83,2.83,0,0,1,.84.61,2.8,2.8,0,0,1,.57,1,4,4,0,0,1,.21,1.37v.75a3.39,3.39,0,0,1-.18,1.13,3.24,3.24,0,0,1-.46.91,2.9,2.9,0,0,1-.66.65,2.26,2.26,0,0,1-.76.35v.07a2.52,2.52,0,0,1,1.73,1.09,4,4,0,0,1,.58,2.25v.78a5.25,5.25,0,0,1-.18,1.46,3.5,3.5,0,0,1-.52,1.06,3,3,0,0,1-.8.72,4,4,0,0,1-1,.43,6.21,6.21,0,0,1-1.17.22c-.42,0-.84.06-1.28.06h-2.46Zm2.75,6.6a3.24,3.24,0,0,0,.85-.11,1.88,1.88,0,0,0,.67-.36,1.55,1.55,0,0,0,.42-.62,2.53,2.53,0,0,0,.15-.92V161a3.82,3.82,0,0,0-.11-1,1.71,1.71,0,0,0-.36-.71,1.53,1.53,0,0,0-.65-.44,2.76,2.76,0,0,0-1-.14h-.46v4.89Zm.21,7.19a2.93,2.93,0,0,0,.86-.12,1.69,1.69,0,0,0,.65-.38,1.65,1.65,0,0,0,.43-.65,2.69,2.69,0,0,0,.15-.94v-1.2a4,4,0,0,0-.11-1,1.65,1.65,0,0,0-.36-.71,1.54,1.54,0,0,0-.64-.43,2.81,2.81,0,0,0-1-.15h-.67v5.54Z"/><path class="cls-1" d="M143.25,172.62a8,8,0,0,1-.81-.05,3.49,3.49,0,0,1-.86-.25,3.36,3.36,0,0,1-.81-.54,3.23,3.23,0,0,1-.7-.92,5.44,5.44,0,0,1-.48-1.4,9.59,9.59,0,0,1-.18-2V162a9.45,9.45,0,0,1,.18-2,5.34,5.34,0,0,1,.5-1.39,2.84,2.84,0,0,1,.7-.9,3.1,3.1,0,0,1,.82-.51,3,3,0,0,1,.85-.23,5.67,5.67,0,0,1,.79-.06,7.42,7.42,0,0,1,.76,0,3.72,3.72,0,0,1,.84.22,2.92,2.92,0,0,1,.81.5,3,3,0,0,1,.71.89,5.43,5.43,0,0,1,.49,1.4,9.69,9.69,0,0,1,.19,2v5.46a9.33,9.33,0,0,1-.19,2,6,6,0,0,1-.5,1.4,3.08,3.08,0,0,1-.71.92,3.62,3.62,0,0,1-.82.54,3.05,3.05,0,0,1-.83.26A5.36,5.36,0,0,1,143.25,172.62Zm0-1.76a1.64,1.64,0,0,0,.6-.11,1,1,0,0,0,.42-.41,2.26,2.26,0,0,0,.25-.76,6.67,6.67,0,0,0,.09-1.2v-7a7.08,7.08,0,0,0-.09-1.24,2.43,2.43,0,0,0-.25-.8,1,1,0,0,0-.42-.43,1.46,1.46,0,0,0-.6-.12,1.49,1.49,0,0,0-.62.12,1,1,0,0,0-.43.43,2.42,2.42,0,0,0-.26.8,7.21,7.21,0,0,0-.08,1.24v7a6.79,6.79,0,0,0,.08,1.2,2.25,2.25,0,0,0,.26.76,1,1,0,0,0,.43.41A1.67,1.67,0,0,0,143.25,170.86Z"/><path class="cls-1" d="M149.26,157.07h2.53c.29,0,.61,0,1,0a5.5,5.5,0,0,1,1,.17,4.34,4.34,0,0,1,1,.42,2.81,2.81,0,0,1,.85.77,4,4,0,0,1,.61,1.22,6.18,6.18,0,0,1,.22,1.78v.39a7.07,7.07,0,0,1-.5,2.87,3.18,3.18,0,0,1-1.49,1.59l2.47,6.17h-2.47l-2-5.77h-.88v5.77h-2.29Zm2.64,8a3.47,3.47,0,0,0,1-.13,1.5,1.5,0,0,0,.69-.46,2.09,2.09,0,0,0,.38-.85,6.7,6.7,0,0,0,.11-1.3v-1.22a4.44,4.44,0,0,0-.1-1,1.66,1.66,0,0,0-.37-.71,1.51,1.51,0,0,0-.68-.42,3.59,3.59,0,0,0-1.07-.13h-.35V165Z"/><path class="cls-1" d="M162.67,157.07h2.43l1.14,0a5.62,5.62,0,0,1,1.16.19,3.7,3.7,0,0,1,1.06.51,3,3,0,0,1,.88.94,5.1,5.1,0,0,1,.61,1.54,10.34,10.34,0,0,1,.22,2.26V167a10.34,10.34,0,0,1-.22,2.26,5.1,5.1,0,0,1-.61,1.54,3,3,0,0,1-.88.94,3.67,3.67,0,0,1-1.06.5,5,5,0,0,1-1.16.2l-1.14,0h-2.43Zm2.94,13.78a2.81,2.81,0,0,0,1-.16,1.33,1.33,0,0,0,.65-.57,3,3,0,0,0,.33-1.12,14.63,14.63,0,0,0,.09-1.79v-4.79a14.63,14.63,0,0,0-.09-1.79,3,3,0,0,0-.33-1.12,1.33,1.33,0,0,0-.65-.57,2.81,2.81,0,0,0-1-.16H165v12.07Z"/><path class="cls-1" d="M172.25,157.07H178v1.84h-3.38v4.61h2.61v1.85h-2.61v5.28h3.47v1.84h-5.81Z"/><path class="cls-1" d="M179.74,157.07h2.34v13.58h3.19v1.84h-5.53Z"/><path class="cls-1" d="M190.7,157.07H193c.3,0,.62,0,1,0a5.62,5.62,0,0,1,1.06.19,3.87,3.87,0,0,1,1,.46,3,3,0,0,1,.87.83,4.25,4.25,0,0,1,.61,1.32,7.19,7.19,0,0,1,.23,1.93v.55a9.16,9.16,0,0,1-.21,2.11A5.2,5.2,0,0,1,197,166a3.27,3.27,0,0,1-.81,1,3.6,3.6,0,0,1-1,.54,4.52,4.52,0,0,1-1,.25c-.34,0-.66,0-1,0H193v4.7H190.7Zm2.46,9a2.54,2.54,0,0,0,1.06-.19,1.48,1.48,0,0,0,.69-.57,2.73,2.73,0,0,0,.38-1,9.08,9.08,0,0,0,.11-1.49v-1.39a6.78,6.78,0,0,0-.1-1.19,1.93,1.93,0,0,0-.36-.82,1.53,1.53,0,0,0-.69-.49,3.37,3.37,0,0,0-1.09-.15H193v7.3Z"/><path class="cls-1" d="M201.27,157.07H204l2.85,15.42h-2.37l-.42-2.76H201.2l-.4,2.76h-2.38Zm2.48,10.9-1.08-7.69h-.1l-1.1,7.69Z"/><path class="cls-1" d="M208.3,157.07h1.89l3.74,10.32H214c0-.24-.05-.51-.08-.81s0-.63-.08-1,0-.8-.06-1.28,0-1,0-1.61v-5.62h2.1v15.42h-1.92l-3.72-10.05h-.07c0,.27,0,.56.07.88s.06.69.09,1.12,0,.92.06,1.49,0,1.24,0,2v4.53H208.3Z"/><rect class="cls-2" y="19.25" width="226.61" height="128.63" rx="37.26"/><path class="cls-3" d="M185.05,140.66H41.56a33.83,33.83,0,0,1-33.8-33.8V60.26a33.84,33.84,0,0,1,33.8-33.8H185.05a33.84,33.84,0,0,1,33.8,33.8v46.6A33.83,33.83,0,0,1,185.05,140.66ZM41.56,28.39A31.9,31.9,0,0,0,9.69,60.26v46.6a31.9,31.9,0,0,0,31.87,31.87H185.05a31.9,31.9,0,0,0,31.87-31.87V60.26a31.9,31.9,0,0,0-31.87-31.87Z"/><path class="cls-1" d="M129.69,12c-2.23-.3-4.56.2-7,.34-4.7-6.8-14.31-6.54-19,.44-8.17-3.29-14.34,1.89-15.81,7.29a10.75,10.75,0,0,0,1.39,8.86c2.4,3.77,6,5.35,10.4,5.32.82,4.07,1.6,8,2.41,12a37.74,37.74,0,0,1,22.22,0C124.84,43,125.38,40,126,37a1.92,1.92,0,0,0-1.36-2.45,30.44,30.44,0,0,0-14.24-2.86c-1.35.06-2.7,0-4.05,0a3.68,3.68,0,0,1,2.1-1.16,25.18,25.18,0,0,1,18,2.85,5.34,5.34,0,0,0,3.19.66A11.11,11.11,0,0,0,139,23.09,10.78,10.78,0,0,0,129.69,12Z"/><path class="cls-2" d="M139.12,9.72a14.58,14.58,0,0,0-11.35-2,4,4,0,0,1-4-1.26,14.45,14.45,0,0,0-20.86,0,4.16,4.16,0,0,1-4.3,1.21A14.71,14.71,0,0,0,81.39,18,15.36,15.36,0,0,0,83,29.91a12.58,12.58,0,0,0,7.94,6c4.94,1.15,6.16,3.82,6.47,7.48a9.93,9.93,0,0,0,.15,1.09c.45,2.19.91,4.38,1.37,6.61l.22,1a43.37,43.37,0,0,1,14.34-2.56,39,39,0,0,1,14,2.63c.17-.87.33-1.73.5-2.6.6-3.16,1.23-6.43,1.87-9.63l0-.13c.24-1.23.58-2.91,3.05-3.21a14.78,14.78,0,0,0,10-5.87,13.68,13.68,0,0,0,2.68-10.38A15.78,15.78,0,0,0,139.12,9.72Zm-9.53,26.05c-1.52.18-1.65,1.1-1.85,2.11-.74,3.67-1.43,7.35-2.14,11.06-8.16-3.36-16.25-3.21-24.63-.1-.51-2.45-1-4.83-1.5-7.22a8.13,8.13,0,0,1-.14-1c-.25-3-1.23-4.65-4.72-5.47-6.69-1.55-10.31-9-8.45-15.78a12.93,12.93,0,0,1,15.15-9.12,2.64,2.64,0,0,0,2.81-.79,12.77,12.77,0,0,1,18.37,0,2.5,2.5,0,0,0,2.6.82c7.65-1.63,14.33,3.12,15.69,11.1C141.93,28.11,136.7,34.93,129.59,35.77Z"/><path class="cls-3" d="M147.53,20A17.69,17.69,0,0,0,140.21,8.1a16.49,16.49,0,0,0-12.84-2.32A2.09,2.09,0,0,1,125.11,5a16.37,16.37,0,0,0-23.62,0,2.23,2.23,0,0,1-2.49.7A16.68,16.68,0,0,0,79.51,17.47a17.34,17.34,0,0,0,1.76,13.44,14.49,14.49,0,0,0,9.18,6.87c3.86.9,4.7,2.64,5,5.75a11.56,11.56,0,0,0,.18,1.31c.45,2.2.91,4.39,1.37,6.62l.68,3.24,1.06-.4c10.2-3.79,19.72-3.76,29.11.1l1.1.46.22-1.17c.25-1.26.49-2.51.73-3.76.6-3.16,1.22-6.42,1.87-9.62l0-.13c.23-1.14.31-1.52,1.37-1.65a16.76,16.76,0,0,0,11.37-6.65A15.6,15.6,0,0,0,147.53,20ZM133,37.56c-1.84.22-2,1.33-2.24,2.56-.89,4.44-1.73,8.9-2.59,13.38-9.88-4.06-19.67-3.88-29.82-.11l-1.82-8.74a12.13,12.13,0,0,1-.16-1.21c-.31-3.59-1.49-5.63-5.72-6.61-8.1-1.89-12.48-10.93-10.22-19.1a15.64,15.64,0,0,1,18.34-11,3.17,3.17,0,0,0,3.39-.95,15.46,15.46,0,0,1,22.24,0,3,3,0,0,0,3.15,1c9.26-2,17.34,3.77,19,13.44C148,28.29,141.62,36.54,133,37.56Z"/><path class="cls-3" d="M127.57,6.73a3,3,0,0,1-3.15-1,15.46,15.46,0,0,0-22.24,0,3.17,3.17,0,0,1-3.39.95A15.64,15.64,0,0,0,80.45,17.73c-2.26,8.17,2.12,17.21,10.22,19.1,4.23,1,5.41,3,5.72,6.61a12.13,12.13,0,0,0,.16,1.21l1.82,8.74c10.15-3.77,19.94-4,29.82.11.86-4.48,1.7-8.94,2.59-13.38.25-1.23.4-2.34,2.24-2.56,8.6-1,14.94-9.27,13.55-17.39C144.91,10.5,136.83,4.76,127.57,6.73Zm15.36,24a14.78,14.78,0,0,1-10,5.87c-2.47.3-2.81,2-3.05,3.21l0,.13c-.64,3.2-1.27,6.47-1.87,9.63-.17.87-.33,1.73-.5,2.6a39,39,0,0,0-14-2.63A43.37,43.37,0,0,0,99.1,52.09l-.22-1c-.46-2.23-.92-4.42-1.37-6.61a9.93,9.93,0,0,1-.15-1.09c-.31-3.66-1.53-6.33-6.47-7.48a12.58,12.58,0,0,1-7.94-6A15.36,15.36,0,0,1,81.39,18,14.71,14.71,0,0,1,98.57,7.63a4.16,4.16,0,0,0,4.3-1.21,14.45,14.45,0,0,1,20.86,0,4,4,0,0,0,4,1.26,14.58,14.58,0,0,1,11.35,2,15.78,15.78,0,0,1,6.49,10.62A13.68,13.68,0,0,1,142.93,30.72Z"/><path d="M125.09,10.3a2.5,2.5,0,0,1-2.6-.82,12.77,12.77,0,0,0-18.37,0,2.64,2.64,0,0,1-2.81.79,12.93,12.93,0,0,0-15.15,9.12c-1.86,6.75,1.76,14.23,8.45,15.78,3.49.82,4.47,2.5,4.72,5.47a8.13,8.13,0,0,0,.14,1c.49,2.39,1,4.77,1.5,7.22,8.38-3.11,16.47-3.26,24.63.1.71-3.71,1.4-7.39,2.14-11.06.2-1,.33-1.93,1.85-2.11,7.11-.84,12.34-7.66,11.19-14.37C139.42,13.42,132.74,8.67,125.09,10.3ZM129.68,34a5.34,5.34,0,0,1-3.19-.66,25.18,25.18,0,0,0-18-2.85,3.68,3.68,0,0,0-2.1,1.16c1.35,0,2.7,0,4.05,0a30.44,30.44,0,0,1,14.24,2.86A1.92,1.92,0,0,1,126,37c-.62,3-1.16,6-1.76,9.26a37.74,37.74,0,0,0-22.22,0c-.81-4-1.59-7.94-2.41-12-4.4,0-8-1.55-10.4-5.32a10.75,10.75,0,0,1-1.39-8.86c1.47-5.4,7.64-10.58,15.81-7.29,4.71-7,14.32-7.24,19-.44,2.48-.14,4.81-.64,7-.34A10.78,10.78,0,0,1,139,23.09,11.11,11.11,0,0,1,129.68,34Z"/><path class="cls-1" d="M60.21,58.39a6,6,0,0,0-1.62,2.33,30.79,30.79,0,0,0-1,5.55,21.54,21.54,0,0,1-1.71,6.64,9.92,9.92,0,0,1-3.72,4,10.14,10.14,0,0,1-5.57,1.62A5.5,5.5,0,0,1,43,77.51a3.34,3.34,0,0,1-1.34-2.73,1.42,1.42,0,0,1,.39-1,8.06,8.06,0,0,1,1.59-1.08A4.51,4.51,0,0,1,45.31,72a.68.68,0,0,1,.49.2.61.61,0,0,1,.2.47c0,.11,0,.53-.16,1.25s-.16,1.16-.16,1.29c0,1.35.57,2,1.7,2s2.35-.75,3.22-2.25a19.28,19.28,0,0,0,1.89-7,18.35,18.35,0,0,1,1.78-6.75A7.19,7.19,0,0,1,57,58.41a6,6,0,0,1,2.2-.82C59.52,57.59,59.84,57.86,60.21,58.39ZM57,54a8.74,8.74,0,0,1,5.7,1.74,5.7,5.7,0,0,1,2.12,4.64,6,6,0,0,1-1.57,4.3,4.27,4.27,0,0,1-2.71,1.62,1.76,1.76,0,0,1-1-.38c-.35-.25-.53-.47-.53-.68a4.66,4.66,0,0,1,.8-1.22,7.29,7.29,0,0,0,1.86-4.58,3.82,3.82,0,0,0-1.29-3A5.12,5.12,0,0,0,57,55.25a9.7,9.7,0,0,0-6,2q-2.7,2-2.7,4.43a2.16,2.16,0,0,0,1.46,2.19c.38.17.57.4.57.7s-.42.66-1.27,1.07a5.25,5.25,0,0,1-1.78.61,1.85,1.85,0,0,1-1.44-1,3.91,3.91,0,0,1-.68-2.2c0-2.13,1.14-4.17,3.43-6.14A12.53,12.53,0,0,1,57,54Z"/><path class="cls-1" d="M80.67,74.44a35.6,35.6,0,0,1-3.89,3.36,4.07,4.07,0,0,1-2.24.78q-2.69,0-2.53-4.74a17.31,17.31,0,0,1-3.13,3.58,4.67,4.67,0,0,1-3,1.16,3.08,3.08,0,0,1-2.53-1.4,5.58,5.58,0,0,1-1-3.44,9.26,9.26,0,0,1,1.4-4.85,11.54,11.54,0,0,1,3.59-3.73,7.38,7.38,0,0,1,3.87-1.43,3,3,0,0,1,3,2l3.47-1.91h1l-1.5,5a21.39,21.39,0,0,0-1.15,5.14c0,1,.34,1.46,1,1.46a2.33,2.33,0,0,0,1.46-.71c.53-.47,1.28-1.18,2.24-2.14Zm-12.42.93c1.13,0,2.19-1,3.2-2.89A11.73,11.73,0,0,0,73,67.14a2.27,2.27,0,0,0-.43-1.48,1.36,1.36,0,0,0-1.13-.54c-1.13,0-2.21,1-3.22,2.89a11.55,11.55,0,0,0-1.52,5.31,2.31,2.31,0,0,0,.45,1.48A1.4,1.4,0,0,0,68.25,75.37Z"/><path class="cls-1" d="M97.31,74.44q-3.91,4.14-6.72,4.14a2.31,2.31,0,0,1-1.83-.8,3.15,3.15,0,0,1-.7-2.14,16.91,16.91,0,0,1,1.5-5.55,9.86,9.86,0,0,0,.79-2.54q0-.54-.42-.54a1.39,1.39,0,0,0-.63.23,7.38,7.38,0,0,0-.83.67c-.28.26-.6.57-1,1s-.63.67-1,1.08l-1,1.1a3.48,3.48,0,0,0-.78,1.62,23.92,23.92,0,0,0-.34,2.64c0,.6,0,1.41,0,2.43l-3.75.88c-.13-1.53-.19-2.66-.19-3.41A20.12,20.12,0,0,1,81.12,70a33.14,33.14,0,0,1,2-5.5l4.14-.8a39.39,39.39,0,0,0-1.71,5.53A32.45,32.45,0,0,1,90,65a5.12,5.12,0,0,1,2.91-1.19,1.84,1.84,0,0,1,1.44.65,2.38,2.38,0,0,1,.57,1.63,17.09,17.09,0,0,1-1.46,5.36,12.93,12.93,0,0,0-1,3.33q0,1,.84,1,1.23,0,4-3.27Z"/><path class="cls-1" d="M115.41,74.44a35.79,35.79,0,0,1-3.88,3.36,4.07,4.07,0,0,1-2.24.78q-2.69,0-2.53-4.74a17.31,17.31,0,0,1-3.13,3.58,4.69,4.69,0,0,1-3,1.16,3.1,3.1,0,0,1-2.54-1.4,5.64,5.64,0,0,1-1-3.44,9.26,9.26,0,0,1,1.4-4.85,11.44,11.44,0,0,1,3.59-3.73A7.38,7.38,0,0,1,106,63.73a3,3,0,0,1,3,2l3.46-1.91h1l-1.49,5a21.57,21.57,0,0,0-1.16,5.14c0,1,.35,1.46,1,1.46a2.31,2.31,0,0,0,1.45-.71c.54-.47,1.28-1.18,2.24-2.14ZM103,75.37q1.7,0,3.2-2.89a11.73,11.73,0,0,0,1.5-5.34,2.33,2.33,0,0,0-.42-1.48,1.37,1.37,0,0,0-1.14-.54q-1.69,0-3.21,2.89a11.55,11.55,0,0,0-1.52,5.31,2.31,2.31,0,0,0,.45,1.48A1.39,1.39,0,0,0,103,75.37Z"/><path class="cls-1" d="M133.52,74.44a29.13,29.13,0,0,1-3.73,3.28,4.25,4.25,0,0,1-2.26.86,2.14,2.14,0,0,1-1.91-1.17A6.84,6.84,0,0,1,124.9,74a11.76,11.76,0,0,1-3,3.43,5.27,5.27,0,0,1-3,1.17,3.24,3.24,0,0,1-2.55-1.37,5,5,0,0,1-1.1-3.2A10.58,10.58,0,0,1,118,67c1.83-2.16,3.81-3.23,5.93-3.23a3.09,3.09,0,0,1,1.38.25,4.3,4.3,0,0,1,1.09.87l2.43-10.15a22.45,22.45,0,0,1,4-.7c.22,0,.34.09.34.28s-.29,1.29-.85,3.51Q129,71.14,129,73.88a1.77,1.77,0,0,0,.27,1,.83.83,0,0,0,.71.39c.72,0,1.92-.94,3.58-2.81Zm-12.27.9c1.11,0,2.14-.94,3.1-2.82a11.58,11.58,0,0,0,1.45-5.28,2.59,2.59,0,0,0-.45-1.59,1.41,1.41,0,0,0-1.18-.59q-1.58,0-3.06,2.94a12.08,12.08,0,0,0-1.47,5.32,2.28,2.28,0,0,0,.43,1.47A1.41,1.41,0,0,0,121.25,75.34Z"/><path class="cls-1" d="M146.19,74.44a21.63,21.63,0,0,1-3.87,3.13,7.33,7.33,0,0,1-3.78,1,4.93,4.93,0,0,1-3.73-1.48,5.38,5.38,0,0,1-1.41-3.88,9.76,9.76,0,0,1,2.49-6.51,7.23,7.23,0,0,1,5.53-2.91,3.77,3.77,0,0,1,2.53.81,2.71,2.71,0,0,1,1,2.14q0,3.51-7.47,5.7.69,3.31,3.55,3.31a4.15,4.15,0,0,0,2.14-.6,18.42,18.42,0,0,0,3.07-2.67ZM137.3,71.3q4.33-1.23,4.34-4.51c0-1.09-.39-1.63-1.18-1.63s-1.46.57-2.14,1.7A8.58,8.58,0,0,0,137.3,71.3Z"/><path class="cls-1" d="M158.88,74.44q-4.26,4.17-6.57,4.17a2.16,2.16,0,0,1-1.74-.87,3.32,3.32,0,0,1-.72-2.17q0-2.38,2.57-6.41a9.55,9.55,0,0,1-2.75.9,19.63,19.63,0,0,1-3.46,4.38h-.39V72.91a22.5,22.5,0,0,0,2.39-3A2.07,2.07,0,0,1,146.75,68a5.51,5.51,0,0,1,.89-2.79,2.73,2.73,0,0,1,2.45-1.48,1.18,1.18,0,0,1,1.32,1.35,9.32,9.32,0,0,1-.76,3.06c1.88-.21,3.52-1.64,4.92-4.31l1.55-.07-1.58,4.34c-.66,1.84-1.08,3.08-1.28,3.74a6.5,6.5,0,0,0-.28,1.76,1.84,1.84,0,0,0,.33,1.14,1.08,1.08,0,0,0,.89.42,2,2,0,0,0,1.17-.41c.37-.28,1.21-1.05,2.51-2.3Z"/><path class="cls-1" d="M167.23,74.44q-4.06,4.17-5.94,4.17a2.15,2.15,0,0,1-1.83-1.11,4.88,4.88,0,0,1-.75-2.79q0-3.61,2.44-10l4.3-.9h.21L164,69.11a17.92,17.92,0,0,0-1,4.7,1.58,1.58,0,0,0,.24.91.75.75,0,0,0,.62.35,2.23,2.23,0,0,0,1.33-.5,16.37,16.37,0,0,0,2.12-2.08Zm3.27-18.8a6.74,6.74,0,0,1-1.89,3.26A21,21,0,0,1,164.17,62l-1-.36a18.14,18.14,0,0,0,3.46-5.56Z"/><path class="cls-1" d="M185.35,74.44a35.6,35.6,0,0,1-3.89,3.36,4.07,4.07,0,0,1-2.24.78q-2.68,0-2.53-4.74a17.31,17.31,0,0,1-3.13,3.58,4.67,4.67,0,0,1-3,1.16,3.08,3.08,0,0,1-2.53-1.4,5.58,5.58,0,0,1-1-3.44,9.26,9.26,0,0,1,1.4-4.85A11.54,11.54,0,0,1,172,65.16a7.38,7.38,0,0,1,3.87-1.43,3,3,0,0,1,3,2l3.47-1.91h1l-1.5,5a21.39,21.39,0,0,0-1.15,5.14c0,1,.34,1.46,1,1.46a2.33,2.33,0,0,0,1.46-.71c.53-.47,1.28-1.18,2.24-2.14Zm-12.42.93c1.13,0,2.19-1,3.2-2.89a11.73,11.73,0,0,0,1.5-5.34,2.27,2.27,0,0,0-.43-1.48,1.36,1.36,0,0,0-1.13-.54q-1.71,0-3.22,2.89a11.55,11.55,0,0,0-1.52,5.31,2.31,2.31,0,0,0,.45,1.48A1.4,1.4,0,0,0,172.93,75.37Z"/><path class="cls-1" d="M83.09,120.2q-6.68,7.17-12.15,7.18a5.52,5.52,0,0,1-5.09-3.22,18.17,18.17,0,0,1-1.74-8.61,53.3,53.3,0,0,1,1.72-11.48A49,49,0,0,1,70.25,91.8L72,88.7a34.18,34.18,0,0,0-5.81,8.09q-2.27,4.39-5.41,12.29A105.79,105.79,0,0,1,56,119.84a32.65,32.65,0,0,1-3.09,4.66,8.46,8.46,0,0,1-2.62,2.34,10.4,10.4,0,0,1-4,.54c-.73,0-1.1-.2-1.1-.6,0,0,.13-.66.39-1.88a58.13,58.13,0,0,0,.81-5.82q.4-4,.59-13.62A48.64,48.64,0,0,1,49.78,89Q47,92.18,44.05,103.84l-.75,2.92q-3.06,12.12-7,16.37t-7.78,4.25a6.31,6.31,0,0,1-4.15-1.49,4.39,4.39,0,0,1-1.79-3.43c0-1,.72-2.1,2.15-3.34s2.34-1.84,2.71-1.84a.84.84,0,0,1,.86.44,13.25,13.25,0,0,1,.54,2.46,4.66,4.66,0,0,0,1,2.62,2.41,2.41,0,0,0,1.69.61c1.53,0,3.23-1.53,5.08-4.6s3.55-7.81,5.08-14.23l.87-3.6a54.56,54.56,0,0,1,2.06-7,29.6,29.6,0,0,1,2.69-5.24c1.61-2.51,2.6-3.84,3-4a7.65,7.65,0,0,1,2.07-.42,28.14,28.14,0,0,1,3-.16c.4,0,.6.23.6.68a10.27,10.27,0,0,1-.19,1.34,57.46,57.46,0,0,0-.56,8.38l.06,8a65.25,65.25,0,0,1-1.67,16.83q1.57-1.9,4.59-9.83,4.35-11.23,7.93-16.87a31.72,31.72,0,0,1,4.1-5.2c1.59-1.66,2.7-2.55,3.32-2.67a30.1,30.1,0,0,1,5.33-.59q.81,0,.81.45a9.93,9.93,0,0,1-1,2.8,78.81,78.81,0,0,0-4.33,14.18,70.37,70.37,0,0,0-2,14.25q0,6,3.66,6,3,0,7.09-5.07Z"/><path class="cls-1" d="M109.83,120.2a10.25,10.25,0,0,1-3,1.89,6.74,6.74,0,0,1-2.27.55,6.88,6.88,0,0,1-4.26-1.67q-4.29,6.5-9.84,6.5a7,7,0,0,1-5.6-2.59A10.48,10.48,0,0,1,82.77,118a16,16,0,0,1,4.82-11.67,15.72,15.72,0,0,1,11.54-4.87,9.43,9.43,0,0,1,3.71.55,2.57,2.57,0,0,1,1.44,1.3,5.58,5.58,0,0,1,.27,1.88q0,5.56-3,13.68a4.69,4.69,0,0,0,3.19,1.4c1.33,0,3-1.17,5.13-3.49ZM100,103.54a3.55,3.55,0,0,0-1.28-.18q-3.87,0-6.06,4a19.64,19.64,0,0,0-2.2,9.48,9.47,9.47,0,0,0,1,4.68,2.93,2.93,0,0,0,2.65,1.67q2.11,0,4.59-3.91a11.88,11.88,0,0,1-2.8-7.57A10.39,10.39,0,0,1,100,103.54Z"/><path class="cls-1" d="M129.52,120.2a43,43,0,0,1-7.1,5.49,11.6,11.6,0,0,1-5.83,1.78,6.22,6.22,0,0,1-5.14-2.48,10.41,10.41,0,0,1-2-6.64,52.09,52.09,0,0,1,2.71-15,95.29,95.29,0,0,1,6.59-16.15l7.56-2.8a1.9,1.9,0,0,1,.54-.12c.58,0,1,.42,1.42,1.26a8.91,8.91,0,0,1,.55,3.42,26.48,26.48,0,0,1-2.8,11.77,53.6,53.6,0,0,1-8.76,12.16q-.24,3.09-.24,4.26a7.63,7.63,0,0,0,1,4.11,2.89,2.89,0,0,0,2.53,1.52A6.45,6.45,0,0,0,124,121.6a41.42,41.42,0,0,0,5.54-4.83Zm-11.41-11.66a36.21,36.21,0,0,0,6.14-9.43,22.54,22.54,0,0,0,2.35-9,4,4,0,0,0-.33-1.77c-.21-.45-.49-.68-.83-.68q-1.09,0-3.2,5.5A102.89,102.89,0,0,0,118.11,108.54Z"/><path class="cls-1" d="M144.18,120.2q-7,7.32-10.43,7.33a3.8,3.8,0,0,1-3.21-2,8.6,8.6,0,0,1-1.31-4.91q0-6.35,4.29-17.58l7.57-1.58h.35l-3,9.33a31.72,31.72,0,0,0-1.84,8.25,2.7,2.7,0,0,0,.43,1.6,1.29,1.29,0,0,0,1.09.61,3.94,3.94,0,0,0,2.33-.85,27.92,27.92,0,0,0,3.71-3.68Zm-.59-30.34q0,7.15-5.28,7.15a6.5,6.5,0,0,1-4.38-1.55,21.49,21.49,0,0,0,2.69-5.9A7.79,7.79,0,0,0,140.4,91,5.38,5.38,0,0,0,143.59,89.86Z"/><path class="cls-1" d="M173.45,120.2q-6.88,7.26-11.8,7.27a4.07,4.07,0,0,1-3.22-1.4,5.51,5.51,0,0,1-1.22-3.76q0-3.18,2.62-9.74a17.82,17.82,0,0,0,1.4-4.47c0-.64-.25-1-.74-1a2.34,2.34,0,0,0-1.11.42,16.15,16.15,0,0,0-1.46,1.16c-.49.46-1,1-1.67,1.67s-1.11,1.19-1.72,1.91l-1.67,1.94a6,6,0,0,0-1.37,2.83,45,45,0,0,0-.6,4.65q-.09,1.57-.09,4.26l-6.59,1.55q-.32-4-.32-6a36.16,36.16,0,0,1,1.11-9.09,59.65,59.65,0,0,1,3.6-9.66l7.27-1.4a68,68,0,0,0-3,9.72,56.86,56.86,0,0,1,7.75-7.56,9,9,0,0,1,5.1-2.1,3.22,3.22,0,0,1,2.53,1.15,4.14,4.14,0,0,1,1,2.87q0,2.85-2.56,9.41-1.75,4.5-1.76,5.85c0,1.19.49,1.79,1.47,1.79q2.17,0,7-5.75Z"/><path class="cls-1" d="M205.25,120.2a63.5,63.5,0,0,1-6.83,5.9,7.16,7.16,0,0,1-3.93,1.37q-4.71,0-4.44-8.32a30.84,30.84,0,0,1-5.5,6.29,8.23,8.23,0,0,1-5.2,2,5.43,5.43,0,0,1-4.46-2.46,9.83,9.83,0,0,1-1.83-6,16.16,16.16,0,0,1,2.46-8.52,20.15,20.15,0,0,1,6.3-6.55c2.57-1.67,4.83-2.51,6.8-2.51a5.27,5.27,0,0,1,5.21,3.43l6.09-3.37h1.68L199,110.18c-1.36,4.39-2,7.41-2,9s.6,2.57,1.81,2.57a4.07,4.07,0,0,0,2.56-1.24q1.41-1.23,3.94-3.77Zm-21.82,1.64q3,0,5.62-5.09a20.52,20.52,0,0,0,2.64-9.37,4.09,4.09,0,0,0-.75-2.61,2.43,2.43,0,0,0-2-.93q-3,0-5.64,5.06a20.26,20.26,0,0,0-2.67,9.33,4.08,4.08,0,0,0,.79,2.61A2.48,2.48,0,0,0,183.43,121.84Z"/></g></g></svg>